<svg id="Layer_1" xmlns="http://www.w3.org/2000/svg" width="30" height="30"><style>.st0{fill:#6cdcef}</style><path class="st0" d="M29.1 10.9c-.1-1.1-.8-2.2-2-2.6l-2.8-1c-1.6-.5-4.1.8-6 2.9-.7.8-1.4 1.9-2.1 3.1-4.8-1-10-4.4-14.1-3.3l3 15.5.2 1.1.1.4c.1.3.2.5.3.8.8 1.6 3 2.2 4.5.9l15.5-13.5 2.4-2.1c.8-.5 1.1-1.3 1-2.2z"/><path d="M29.1 10.9c-.1-1.1-.8-2.2-2-2.6l-2.8-1c2.3.8.1 4.9-3.6 6-1.4.4-2.9.4-4.5 0-1.5 2.7-3.2 5.9-6.2 7.8-3.2 2.1-5.4 2-5.4 2l.5 2.4.3 1.6c.1.3.2.5.3.8.8 1.6 3 2.2 4.5.9l15.5-13.5 2.4-2.1c.8-.6 1.1-1.4 1-2.3z" fill="#25cae5"/><path d="M4.8.6l22.4 7.7c2.1.7 2.7 3.5 1 5l-18 15.5c-1.7 1.5-4.4.6-4.8-1.7L.9 3.9C.5 1.7 2.6-.1 4.8.6z" fill="#fff"/><path d="M29.1 10.9c-.1-1.1-.8-2.2-2-2.6l-2.8-1c-1.6-.5-4.1.8-6 2.9-.7.8-1.4 1.9-2.1 3.1-4.8-1-10-4.4-14.1-3.3l3 15.5.2 1.1.1.4c.1.3.2.5.3.8.8 1.6 3 2.2 4.5.9l15.5-13.5 2.4-2.1c.8-.5 1.1-1.4 1-2.2z" fill="#aef5ff"/><path class="st0" d="M29.1 10.9c-.1-1.1-.8-2.2-2-2.6l-2.8-1c2.3.8.1 4.9-3.6 6-1.4.4-2.9.4-4.5 0-1.5 2.7-3.2 5.9-6.2 7.8-3.2 2.1-5.4 2-5.4 2l.5 2.4.3 1.6c.1.3.2.5.3.8.8 1.6 3 2.2 4.5.9l15.5-13.5 2.4-2.1c.8-.6 1.1-1.5 1-2.3z"/></svg>